
<svg width="16px" height="16px" viewBox="0 0 16 16" version="1.1" xmlns="http://www.w3.org/2000/svg" xmlns:xlink="http://www.w3.org/1999/xlink">
    <!-- Generator: Sketch 48.2 (47327) - http://www.bohemiancoding.com/sketch -->
    <desc>Created with Sketch.</desc>
    <defs></defs>
    <g id="Symbols" stroke="none" stroke-width="1" fill="none" fill-rule="evenodd">
        <g id="Navigation-01" transform="translate(-1153.000000, -27.000000)" fill="#919191" stroke="#919191">
            <path d="M1159.89059,38.7002188 C1157.13786,38.7002188 1154.90591,36.5076586 1154.90591,33.7986871 C1154.90591,31.0897155 1157.13786,28.892779 1159.89059,28.892779 C1162.64333,28.892779 1164.87527,31.0897155 1164.87527,33.7986871 C1164.87527,36.5076586 1162.64333,38.7002188 1159.89059,38.7002188 L1159.89059,38.7002188 Z M1167.86783,41.238512 L1164.25339,37.6805252 C1165.2,36.6520788 1165.78118,35.2954048 1165.78118,33.7986871 C1165.78118,30.595186 1163.14398,28 1159.89059,28 C1156.6372,28 1154,30.595186 1154,33.7986871 C1154,36.9978118 1156.6372,39.5929978 1159.89059,39.5929978 C1161.29628,39.5929978 1162.58556,39.107221 1163.59825,38.297593 L1167.22757,41.868709 C1167.40438,42.0437637 1167.69103,42.0437637 1167.86783,41.868709 C1168.04508,41.6980306 1168.04508,41.4135667 1167.86783,41.238512 L1167.86783,41.238512 Z" id="Fill-18"></path>
        </g>
    </g>
</svg>